<?xml version="1.0" standalone="no"?>
<!DOCTYPE svg PUBLIC "-//W3C//DTD SVG 20010904//EN"
 "http://www.w3.org/TR/2001/REC-SVG-20010904/DTD/svg10.dtd">
<svg version="1.0" xmlns="http://www.w3.org/2000/svg"
 width="1024.000000pt" height="1024.000000pt" viewBox="0 0 1024.000000 1024.000000"
 preserveAspectRatio="xMidYMid meet">

<g transform="translate(0.000000,1024.000000) scale(0.100000,-0.100000)"
fill="#D5CEA3" stroke="none">
<path d="M0 5120 l0 -5120 5120 0 5120 0 0 5120 0 5120 -5120 0 -5120 0 0
-5120z m5233 3865 c261 -146 685 -348 952 -455 381 -151 994 -298 1438 -345
153 -16 180 -23 191 -51 3 -8 6 -256 6 -550 l0 -534 -110 0 -110 0 0 453 1
452 -58 8 c-677 97 -1185 233 -1708 457 -133 57 -517 251 -639 324 l-79 47
-136 -70 c-178 -91 -526 -239 -704 -300 l-143 -49 -171 61 c-94 34 -170 64
-168 68 3 3 84 32 182 64 242 78 328 109 538 199 129 54 557 258 601 285 1 1
54 -28 117 -64z m-2662 -414 c677 -209 1122 -348 1419 -446 1242 -408 1912
-631 1951 -651 56 -28 94 -71 110 -124 11 -37 6 -64 -75 -377 -83 -325 -88
-339 -121 -370 -25 -24 -44 -33 -70 -33 -29 0 -304 80 -1025 300 -69 21 -335
101 -592 179 -553 167 -568 172 -605 214 -16 18 -107 145 -203 282 -96 138
-246 353 -335 480 l-160 229 -190 59 c-316 97 -527 163 -585 185 -41 15 -59
18 -74 10 -43 -23 -256 -230 -256 -249 0 -11 11 -42 25 -69 14 -27 49 -105 79
-172 29 -68 80 -176 111 -240 l57 -117 69 -20 68 -21 -20 -63 c-12 -34 -25
-74 -31 -88 l-9 -27 -86 24 c-57 16 -96 33 -114 50 -18 17 -82 147 -180 362
-161 355 -177 405 -149 472 15 37 331 337 374 356 69 30 111 20 617 -135z
m162 -601 c115 -37 166 -59 191 -81 30 -26 139 -179 152 -212 3 -9 -21 -12
-84 -12 -82 0 -94 -3 -163 -37 -98 -49 -158 -103 -219 -196 -128 -195 -147
-467 -43 -639 93 -157 248 -237 410 -213 78 11 116 26 191 73 78 49 142 121
186 212 35 70 86 230 86 267 0 17 7 13 47 -22 46 -40 142 -92 196 -105 20 -5
26 -12 22 -24 -2 -9 -47 -176 -100 -372 -52 -196 -99 -370 -105 -385 -16 -42
-59 -83 -94 -89 -29 -5 -575 151 -1071 306 -233 73 -249 97 -196 285 16 60 76
271 131 469 56 198 128 457 161 575 61 224 74 250 123 250 12 0 93 -23 179
-50z m5962 -112 c87 -45 146 -120 171 -219 37 -144 -37 -308 -165 -369 l-51
-23 0 -119 c0 -84 -4 -127 -14 -146 -8 -15 -97 -109 -198 -209 -176 -175 -185
-182 -232 -189 -27 -4 -270 -4 -540 -1 l-491 5 -385 -383 c-212 -210 -396
-390 -410 -399 -20 -13 -55 -16 -212 -16 -148 0 -188 3 -188 13 0 7 -18 50
-40 96 -22 45 -40 83 -40 84 0 1 84 1 187 -1 l187 -3 401 401 c345 345 407
403 441 411 23 5 249 6 554 3 l515 -6 132 133 132 134 2 98 3 98 -55 30 c-65
35 -102 75 -138 149 -22 46 -26 69 -26 140 0 74 4 92 29 140 35 68 79 115 131
142 64 33 85 38 170 34 62 -2 91 -8 130 -28z m-5589 -513 c41 -27 64 -74 64
-133 l0 -54 -30 25 c-42 36 -82 42 -127 20 -49 -24 -74 -61 -80 -117 -9 -73
32 -119 118 -134 l44 -8 -43 -28 c-91 -61 -182 -40 -230 54 -20 38 -23 56 -19
115 5 84 30 146 83 205 69 76 155 98 220 55z m1135 -516 c184 -55 476 -143
649 -195 173 -52 355 -106 403 -121 l88 -27 -3 -55 c-3 -36 -8 -55 -16 -54
-236 49 -406 40 -583 -28 -185 -71 -382 -257 -460 -433 -11 -25 -23 -46 -27
-46 -12 0 -314 87 -530 152 -201 61 -202 62 -166 74 43 15 79 46 93 82 10 26
201 734 201 746 0 11 14 7 351 -95z m4762 -379 c100 -37 171 -117 203 -226 46
-158 -49 -337 -207 -389 -68 -23 -179 -17 -241 13 -68 33 -120 83 -151 146
l-29 56 -611 0 -611 0 -381 -380 -381 -380 -282 0 -282 0 0 100 0 100 242 0
242 0 381 380 381 380 649 2 649 3 41 57 c98 140 245 191 388 138z m-6832
-263 l56 -20 6 -231 c9 -319 31 -525 93 -856 40 -215 79 -367 127 -500 132
-363 267 -621 488 -929 337 -473 814 -921 1389 -1306 233 -156 596 -365 634
-365 47 0 429 227 731 434 507 348 947 766 1267 1204 282 386 463 782 589
1285 l21 87 115 0 114 0 -7 -37 c-31 -175 -147 -547 -233 -748 -148 -344 -394
-719 -698 -1065 -126 -143 -415 -428 -548 -539 -241 -201 -645 -484 -940 -656
-181 -106 -389 -215 -410 -215 -41 0 -450 229 -705 395 -1014 660 -1728 1505
-2028 2400 -67 200 -85 269 -126 475 -67 331 -96 647 -96 1026 l0 224 53 -21
c28 -12 77 -30 108 -42z m3134 -7 c125 -39 202 -86 296 -180 67 -67 95 -104
122 -161 63 -130 70 -175 71 -447 l1 -243 -130 0 -130 0 -5 243 -5 244 -32 65
c-41 82 -111 150 -201 192 -63 30 -74 32 -177 32 -106 0 -113 -2 -180 -34
-129 -64 -212 -174 -234 -312 -6 -35 -11 -147 -11 -249 l0 -185 -130 3 -130 3
0 220 c0 264 11 333 77 468 36 77 59 109 122 170 87 87 217 162 324 187 89 20
262 12 352 -16z m3177 -519 c65 -32 125 -92 156 -159 22 -47 27 -71 27 -137 0
-71 -4 -89 -33 -147 -57 -116 -157 -178 -287 -178 -126 0 -225 59 -284 169
l-32 61 -325 2 c-178 1 -335 2 -348 2 -18 1 -84 -57 -270 -236 l-245 -238
-191 0 c-132 0 -190 3 -190 11 0 6 -18 49 -40 96 -22 47 -40 86 -40 87 0 0 83
0 183 -2 l184 -3 234 230 c129 127 249 238 267 247 29 13 83 15 410 13 l376
-2 24 39 c48 77 112 131 191 161 54 20 175 11 233 -16z m-2394 -726 c62 -19
105 -54 135 -109 22 -41 22 -45 22 -511 l-1 -470 -26 -99 c-52 -187 -145 -339
-289 -469 -168 -153 -462 -348 -697 -464 l-114 -56 -114 57 c-158 80 -411 238
-541 337 -216 166 -312 268 -378 404 -93 191 -107 306 -103 821 l3 390 30 59
c33 63 60 89 121 110 61 22 1878 22 1952 0z"/>
<path d="M8506 7710 c-41 -13 -85 -58 -98 -101 -42 -142 137 -252 241 -148 82
81 49 218 -60 249 -39 11 -44 11 -83 0z"/>
<path d="M8835 6286 c-42 -18 -83 -69 -91 -112 -13 -72 35 -153 102 -170 38
-10 104 2 133 24 37 27 65 100 57 146 -9 48 -59 103 -104 116 -47 13 -60 12
-97 -4z"/>
<path d="M8273 5499 c-53 -26 -88 -91 -80 -149 19 -144 209 -178 275 -50 28
55 28 82 1 138 -16 33 -32 49 -63 63 -53 24 -82 24 -133 -2z"/>
<path d="M5065 4541 c-57 -15 -131 -60 -169 -101 -56 -62 -76 -113 -76 -196 0
-88 29 -152 102 -220 l50 -47 -11 -66 c-6 -36 -26 -146 -44 -243 l-34 -178
234 0 c215 0 233 1 233 18 0 9 -21 120 -46 246 l-47 230 24 15 c13 8 45 36 71
61 137 134 78 367 -117 456 -58 27 -125 37 -170 25z"/>
</g>
</svg>
